<?xml version="1.0" encoding="UTF-8"?>
<svg id="Layer_1" data-name="Layer 1" xmlns="http://www.w3.org/2000/svg" version="1.1" xmlns:xlink="http://www.w3.org/1999/xlink" viewBox="0 0 1818.5 792">
  <defs>
    <style>
      .cls-1 {
        fill: url(#linear-gradient);
      }

      .cls-1, .cls-2 {
        stroke-width: 0px;
      }

      .cls-2 {
        fill: #0e375a;
      }
    </style>
    <linearGradient id="linear-gradient" x1="476" y1="281.2" x2="246.3" y2="408.4" gradientUnits="userSpaceOnUse">
      <stop offset="0" stop-color="#6da643"/>
      <stop offset="1" stop-color="#00729e"/>
    </linearGradient>
  </defs>
  <g>
    <g>
      <path class="cls-2" d="M628.6,535.8h-15.5v23.6h-12.3v-75.8h27.8c17.2,0,25.8,8.5,25.8,25.5s-2.2,15.4-6.5,19.9c-4.3,4.6-10.8,6.9-19.3,6.9ZM613.1,525.1h15.4c8.9,0,13.3-5.4,13.3-16.2s-1.1-8.9-3.2-11.3c-2.1-2.4-5.5-3.5-10.1-3.5h-15.4v31Z"/>
      <path class="cls-2" d="M660.5,559.3l18.7-75.8h24.5l18.8,75.8h-12.4l-4.1-16.3h-29.1l-4.1,16.3h-12.3ZM688.7,493.8l-9.4,38.4h24.2l-9.3-38.4h-5.5Z"/>
      <path class="cls-2" d="M749.1,532.3v27h-12.3v-75.8h28.8c17.1,0,25.7,8,25.7,24.1s-4.1,18.1-12.4,21.9l12.5,29.8h-13.5l-11-27h-17.8ZM778.7,507.7c0-9.1-4.4-13.6-13.1-13.6h-16.5v27.6h16.7c4.4,0,7.7-1.3,9.7-3.8,2.1-2.5,3.1-5.9,3.1-10.1Z"/>
      <path class="cls-2" d="M820.2,559.3h-12.3v-75.8h12.3v34.2l11.3-.9,15.5-33.3h14.1l-18.7,38.1,19.5,37.8h-14.3l-16.1-31.7-11.3.8v30.9Z"/>
      <path class="cls-2" d="M876,559.3v-75.8h12.3v75.8h-12.3Z"/>
      <path class="cls-2" d="M908.1,559.3v-75.8h21.5l23,65h1.7v-65h12.3v75.8h-21l-23.6-65.1h-1.5v65.1h-12.3Z"/>
      <path class="cls-2" d="M1017.7,530.3v-10.8h21.6v38.5c-2,.5-6,1.1-12.1,1.7-6.1.6-10.5.9-13.2.9-11.5,0-19.4-3.2-23.8-9.5-4.4-6.3-6.5-16.3-6.5-29.8s2.2-23.4,6.7-29.6c4.5-6.2,12.2-9.3,23.2-9.3s13.8.7,21.9,2.2l3.9.8-.4,9.7c-8.9-1.2-16.9-1.8-24-1.8s-11.9,2-14.6,6c-2.6,4-3.9,11.4-3.9,22.1s1.2,18.2,3.7,22.3c2.5,4.1,7.5,6.1,15,6.1s9.4-.3,12.1-1v-18.5h-9.4Z"/>
      <path class="cls-2" d="M1112.4,493c-9.4,0-14.1,3.3-14.1,9.9s1.1,5.8,3.3,7.3c2.2,1.4,7.1,3.2,14.7,5.3,7.6,2.1,12.9,4.6,16,7.5,3.1,2.9,4.6,7.5,4.6,13.8s-2.3,13.9-6.8,17.9c-4.5,3.9-10.7,5.9-18.5,5.9s-13.2-.7-20.8-2.2l-4-.8,1.2-9.9c10,1.3,17.6,2,22.8,2,9.2,0,13.7-4.1,13.7-12.2s-1-5.5-3.1-7c-2.1-1.5-6.7-3.2-14-5-7.2-1.8-12.6-4.3-16.2-7.5-3.5-3.2-5.3-8.2-5.3-15.1s2.2-12,6.7-15.6c4.5-3.5,10.6-5.3,18.5-5.3s12.4.7,20.1,2l3.9.7-1,10c-10.3-1.2-17.6-1.8-21.9-1.8Z"/>
      <path class="cls-2" d="M1205.4,551.3c-4.5,6.2-12.5,9.3-24,9.3s-19.4-3.1-24-9.4c-4.6-6.2-6.9-16-6.9-29.4s2.3-23.3,6.9-29.8c4.6-6.5,12.6-9.7,24-9.7s19.3,3.2,23.9,9.7c4.6,6.5,6.9,16.4,6.9,29.8s-2.3,23.3-6.8,29.4ZM1167,543.3c2.5,4.4,7.3,6.5,14.4,6.5s11.9-2.1,14.3-6.4c2.5-4.3,3.7-11.5,3.7-21.5s-1.3-17.4-3.8-22c-2.5-4.6-7.3-6.9-14.2-6.9s-11.7,2.3-14.3,6.9c-2.6,4.6-3.9,11.9-3.9,21.9s1.3,17.2,3.8,21.5Z"/>
      <path class="cls-2" d="M1271.8,559.3h-42.5v-75.8h12.3v64.9h30.2v11Z"/>
      <path class="cls-2" d="M1296.8,535.1c0,9.8,5.2,14.7,15.5,14.7s15.5-4.9,15.5-14.7v-51.6h12.4v51.4c0,8.9-2.3,15.4-7,19.5-4.7,4.1-11.7,6.1-20.9,6.1s-16.2-2-20.9-6.1c-4.6-4.1-7-10.6-7-19.5v-51.4h12.4v51.6Z"/>
      <path class="cls-2" d="M1353.8,494.5v-11h55.4v11h-21.4v64.9h-12.4v-64.9h-21.6Z"/>
      <path class="cls-2" d="M1423.2,559.3v-75.8h12.3v75.8h-12.3Z"/>
      <path class="cls-2" d="M1507.5,551.3c-4.5,6.2-12.5,9.3-24,9.3s-19.4-3.1-24-9.4c-4.6-6.2-6.9-16-6.9-29.4s2.3-23.3,6.9-29.8c4.6-6.5,12.6-9.7,24-9.7s19.3,3.2,23.9,9.7c4.6,6.5,6.9,16.4,6.9,29.8s-2.3,23.3-6.8,29.4ZM1469.1,543.3c2.5,4.4,7.3,6.5,14.4,6.5s11.9-2.1,14.3-6.4c2.5-4.3,3.7-11.5,3.7-21.5s-1.3-17.4-3.8-22c-2.5-4.6-7.3-6.9-14.2-6.9s-11.7,2.3-14.3,6.9c-2.6,4.6-3.9,11.9-3.9,21.9s1.3,17.2,3.8,21.5Z"/>
      <path class="cls-2" d="M1531.4,559.3v-75.8h21.5l23,65h1.7v-65h12.3v75.8h-21l-23.6-65.1h-1.5v65.1h-12.3Z"/>
      <path class="cls-2" d="M1632.1,493c-9.4,0-14.1,3.3-14.1,9.9s1.1,5.8,3.3,7.3c2.2,1.4,7.1,3.2,14.7,5.3,7.6,2.1,12.9,4.6,16,7.5,3.1,2.9,4.6,7.5,4.6,13.8s-2.3,13.9-6.8,17.9c-4.5,3.9-10.7,5.9-18.5,5.9s-13.2-.7-20.8-2.2l-4-.8,1.2-9.9c10,1.3,17.6,2,22.8,2,9.2,0,13.7-4.1,13.7-12.2s-1-5.5-3.1-7c-2.1-1.5-6.7-3.2-13.9-5-7.2-1.8-12.6-4.3-16.2-7.5-3.5-3.2-5.3-8.2-5.3-15.1s2.2-12,6.7-15.6c4.5-3.5,10.6-5.3,18.5-5.3s12.4.7,20.1,2l3.9.7-1,10c-10.3-1.2-17.6-1.8-21.9-1.8Z"/>
    </g>
    <g>
      <path class="cls-2" d="M1474.3,395.3v-117.2h182.3v-44.6h-202.7c-13,0-23.6,10.7-23.6,24v100.4l48.6,82h177.7v-44.6h-182.3Z"/>
      <path class="cls-2" d="M624.4,233.5c-13,0-23.6,10.7-23.6,23.9v182.5h43.9v-77.6h127.3l26.1-44.6h-153.4v-39.6h176.6l26.1-44.6h-223Z"/>
      <path class="cls-2" d="M1044.4,440.2h51.9l-107.5-184.8c-8-13.7-22.7-22.2-38.5-22.2s-30.5,8.5-38.6,22.2l-107.5,184.8h52l25.1-45.4h138l25.1,45.4ZM902.2,357l48.1-86.8,48.1,86.8h-96.2Z"/>
      <path class="cls-2" d="M1350.9,440.2h51.9l-107.5-184.8c-8-13.7-22.7-22.2-38.5-22.2s-30.5,8.5-38.6,22.2l-107.5,184.8h52l25.1-45.4h138l25.1,45.4ZM1208.7,357l48.1-86.8,48.1,86.8h-96.2Z"/>
    </g>
  </g>
  <path class="cls-1" d="M374.2,542.5l151.3-262.1c12.6-21.8-3.1-49-28.3-49H194.6c-25.1,0-40.8,27.2-28.3,49l37.9,65.7,123.5-71.3c12-6.9,27.4-2.8,34.4,9.2h0c6.9,12,2.8,27.4-9.2,34.4l-145.2,83.9c-12,6.9-16.2,22.3-9.2,34.4h0c6.9,12,22.3,16.2,34.4,9.2l101.7-58.7c12-6.9,27.4-2.8,34.4,9.2h0c6.9,12,2.8,27.4-9.2,34.4l-58.1,33.5c-12,6.9-16.2,22.3-9.2,34.4l25.3,43.9c12.6,21.8,44,21.8,56.5,0Z"/>
</svg>